<svg id="Capa_1" data-name="Capa 1" xmlns="http://www.w3.org/2000/svg" xmlns:xlink="http://www.w3.org/1999/xlink" viewBox="0 0 50 50"><defs><style>.cls-1{fill:url(#Degradado_sin_nombre_2);}.cls-2{fill:#3c3c3b;}</style><linearGradient id="Degradado_sin_nombre_2" x1="25" y1="50" x2="25" gradientUnits="userSpaceOnUse"><stop offset="0" stop-color="#fdda74"/><stop offset="1" stop-color="#e64850"/></linearGradient></defs><title>Mesa de trabajo 4</title><circle id="_Trazado_" data-name="&lt;Trazado&gt;" class="cls-1" cx="25" cy="25" r="25"/><path id="_Trazado_2" data-name="&lt;Trazado&gt;" class="cls-2" d="M33,32.21a2.87,2.87,0,0,0,2.55,3.1,2.87,2.87,0,0,0,2.55-3.1,2.86,2.86,0,0,0-2.55-3.09A2.86,2.86,0,0,0,33,32.21Z"/><path id="_Trazado_3" data-name="&lt;Trazado&gt;" class="cls-2" d="M28.1,30.93a1,1,0,0,1-.05-2C35,28.6,41.56,27.36,42.1,26.31a.94.94,0,0,1,1-.94,1,1,0,0,1,1,1c0,3.05-8.64,4.15-15.89,4.54Z"/><path id="_Trazado_4" data-name="&lt;Trazado&gt;" class="cls-2" d="M16.46,32.21a2.87,2.87,0,0,1-2.55,3.1,2.87,2.87,0,0,1-2.55-3.1,2.86,2.86,0,0,1,2.55-3.09A2.86,2.86,0,0,1,16.46,32.21Z"/><path id="_Trazado_5" data-name="&lt;Trazado&gt;" class="cls-2" d="M21.4,30.93h-.06c-7.25-.39-15.89-1.49-15.89-4.54a1,1,0,0,1,2,0c.53,1,7.1,2.21,14,2.58a1,1,0,0,1-.05,2Z"/></svg>