<svg id="Capa_1" data-name="Capa 1" xmlns="http://www.w3.org/2000/svg" viewBox="0 0 50 50"><defs><style>.cls-1{fill:#fdda74;}.cls-2{fill:#3c3c3b;}.cls-3{fill:#f25268;}</style></defs><title>Mesa de trabajo 6</title><circle id="_Trazado_" data-name="&lt;Trazado&gt;" class="cls-1" cx="25" cy="25" r="25"/><g id="_Grupo_" data-name="&lt;Grupo&gt;"><g id="_Grupo_2" data-name="&lt;Grupo&gt;"><path id="_Trazado_2" data-name="&lt;Trazado&gt;" class="cls-2" d="M43.46,25.31a18.46,18.46,0,0,1-36.92,0Z"/><ellipse id="_Trazado_3" data-name="&lt;Trazado&gt;" class="cls-3" cx="25" cy="37.98" rx="13.4" ry="5.79"/></g><g id="_Grupo_3" data-name="&lt;Grupo&gt;"><path id="_Trazado_4" data-name="&lt;Trazado&gt;" class="cls-2" d="M7.78,19.91A1,1,0,0,1,7.59,18l7.54-1.57L9.41,13.19a1,1,0,0,1,1-1.72l8,4.5a1,1,0,0,1-.28,1.81L8,19.89Z"/><path id="_Trazado_5" data-name="&lt;Trazado&gt;" class="cls-2" d="M42.22,19.91l-.21,0-10.1-2.11A1,1,0,0,1,31.63,16l8-4.5a1,1,0,1,1,1,1.72L34.87,16.4,42.42,18a1,1,0,0,1,.76,1.16A1,1,0,0,1,42.22,19.91Z"/></g></g></svg>