<svg id="Capa_1" data-name="Capa 1" xmlns="http://www.w3.org/2000/svg" viewBox="0 0 50 50"><defs><style>.cls-1{fill:#fdda74;}.cls-2{fill:#3c3c3b;}</style></defs><title>Mesa de trabajo 5</title><circle id="_Trazado_" data-name="&lt;Trazado&gt;" class="cls-1" cx="25" cy="25" r="25"/><ellipse id="_Trazado_2" data-name="&lt;Trazado&gt;" class="cls-2" cx="25" cy="35.59" rx="6.47" ry="9.78"/><g id="_Grupo_" data-name="&lt;Grupo&gt;"><path id="_Trazado_3" data-name="&lt;Trazado&gt;" class="cls-2" d="M16.44,19.12c0,2.63-1.42,4.77-3.16,4.77s-3.16-2.14-3.16-4.77,1.41-4.77,3.16-4.77S16.44,16.48,16.44,19.12Z"/><path id="_Trazado_4" data-name="&lt;Trazado&gt;" class="cls-2" d="M39.88,19.12c0,2.63-1.41,4.77-3.16,4.77s-3.16-2.14-3.16-4.77,1.42-4.77,3.16-4.77S39.88,16.48,39.88,19.12Z"/><path id="_Trazado_5" data-name="&lt;Trazado&gt;" class="cls-2" d="M17.27,9.5a1,1,0,0,1-.7-.29,4,4,0,0,0-5.56,0A1,1,0,0,1,9.63,7.82a5.9,5.9,0,0,1,8.33,0,1,1,0,0,1-.69,1.68Z"/><path id="_Trazado_6" data-name="&lt;Trazado&gt;" class="cls-2" d="M39.32,9.5a1,1,0,0,1-.7-.29,4,4,0,0,0-5.56,0,1,1,0,0,1-1.38-1.39,5.9,5.9,0,0,1,8.33,0,1,1,0,0,1-.69,1.68Z"/></g></svg>