<svg id="Capa_1" data-name="Capa 1" xmlns="http://www.w3.org/2000/svg" viewBox="0 0 50 50"><defs><style>.cls-1{fill:#d24103;}.cls-2{fill:#562912;}</style></defs><title>Mesa de trabajo 5</title><path class="cls-1" d="M50,25A25,25,0,1,1,25,0,25,25,0,0,1,50,25Z"/><path class="cls-2" d="M18,26.39c0,2-1.15,3.65-2.57,3.65s-2.56-1.64-2.56-3.65S14,22.75,15.4,22.75,18,24.38,18,26.39Z"/><path class="cls-2" d="M37.16,26.39c0,2-1.15,3.65-2.56,3.65S32,28.4,32,26.39s1.15-3.64,2.57-3.64S37.16,24.38,37.16,26.39Z"/><path class="cls-2" d="M19.48,24a.7.7,0,0,1-.67-.51,7.39,7.39,0,0,0-6.38-4.87.69.69,0,0,1-.62-.78.71.71,0,0,1,.78-.62,8.79,8.79,0,0,1,7.57,5.87.7.7,0,0,1-.48.88A.64.64,0,0,1,19.48,24Z"/><path class="cls-2" d="M30.52,24a.64.64,0,0,1-.2,0,.7.7,0,0,1-.48-.88,8.79,8.79,0,0,1,7.57-5.87.7.7,0,0,1,.78.62.69.69,0,0,1-.62.78,7.39,7.39,0,0,0-6.38,4.87A.7.7,0,0,1,30.52,24Z"/><path class="cls-2" d="M30,38.19a1.14,1.14,0,0,1-.77-.31,6.17,6.17,0,0,0-4-1.6,6.09,6.09,0,0,0-4.48,1.59,1.14,1.14,0,1,1-1.57-1.64,8.72,8.72,0,0,1,11.63,0,1.14,1.14,0,0,1-.78,2Z"/></svg>