<svg id="Capa_1" data-name="Capa 1" xmlns="http://www.w3.org/2000/svg" viewBox="0 0 50 50"><defs><style>.cls-1{fill:#ffce00;}.cls-2{fill:#562912;}</style></defs><title>Mesa de trabajo 6</title><circle class="cls-1" cx="25" cy="25" r="25" transform="translate(-5.51 42.86) rotate(-75.35)"/><path class="cls-2" d="M16.89,20.42a2.86,2.86,0,0,1-2.57,3.07,2.86,2.86,0,0,1-2.56-3.07,2.85,2.85,0,0,1,2.56-3.07A2.85,2.85,0,0,1,16.89,20.42Z"/><path class="cls-2" d="M37.39,23.51a.85.85,0,0,1-.56-.21c-1.67-1.55-4.14-.34-4.16-.32a.82.82,0,0,1-1.05-1.18,6.55,6.55,0,0,1,5.87-2.93.8.8,0,0,1,.75.87.82.82,0,0,1-.87.76,4.86,4.86,0,0,0-2.22.39,4.52,4.52,0,0,1,2.79,1.21.81.81,0,0,1-.55,1.41Z"/><path class="cls-2" d="M26.72,41.26a12.23,12.23,0,0,1-7.51-2.57A1.21,1.21,0,0,1,19,37a1.23,1.23,0,0,1,1.72-.22,9.8,9.8,0,0,0,15.81-8A1.22,1.22,0,1,1,39,28.64,12.27,12.27,0,0,1,27.09,41.26Z"/></svg>