<svg id="Capa_1" data-name="Capa 1" xmlns="http://www.w3.org/2000/svg" viewBox="0 0 50 50"><defs><style>.cls-1{fill:#ffce00;}.cls-2{fill:#562912;}.cls-3{fill:#cc342f;}</style></defs><title>Mesa de trabajo 8</title><path class="cls-1" d="M50,25A25,25,0,1,1,25,0,25,25,0,0,1,50,25Z"/><path class="cls-2" d="M41.53,21.78a.39.39,0,0,0,.6-.33h0a3.31,3.31,0,0,0-6.61,0h0a.39.39,0,0,0,.6.33,5.14,5.14,0,0,1,5.41,0Z"/><path class="cls-2" d="M13.88,21.78a.39.39,0,0,0,.6-.33h0a3.31,3.31,0,0,0-6.61,0h0a.39.39,0,0,0,.6.33,5.14,5.14,0,0,1,5.41,0Z"/><path class="cls-2" d="M12.22,28.79a1.48,1.48,0,0,0-1,1.92c1.87,4.71,7.32,8.68,13.73,8.68s11.86-4,13.73-8.68a1.48,1.48,0,0,0-.95-1.92A42.54,42.54,0,0,0,12.22,28.79Z"/><path class="cls-3" d="M18.12,37.78a15.51,15.51,0,0,0,13.76,0,11.52,11.52,0,0,0-13.76,0Z"/></svg>