<svg id="Capa_1" data-name="Capa 1" xmlns="http://www.w3.org/2000/svg" viewBox="0 0 50 50"><defs><style>.cls-1{fill:#ffce00;}.cls-2{fill:#562912;}.cls-3{fill:#fff;}.cls-4{fill:#cc342f;}</style></defs><title>Mesa de trabajo 7</title><circle class="cls-1" cx="25" cy="25" r="25"/><path class="cls-2" d="M38.27,16.35a5.13,5.13,0,0,1-.43,2.09.68.68,0,0,1-1,.3,2.08,2.08,0,0,0-1.24-.42,2,2,0,0,0-1.22.42.68.68,0,0,1-1-.3,5,5,0,0,1-.44-2.09c0-2.09,1.2-3.8,2.67-3.8S38.27,14.26,38.27,16.35Z"/><path class="cls-2" d="M17.08,16.35a5,5,0,0,1-.44,2.09.68.68,0,0,1-1,.3,2,2,0,0,0-1.23-.42,2.08,2.08,0,0,0-1.23.42.68.68,0,0,1-1-.3,5.13,5.13,0,0,1-.43-2.09c0-2.09,1.19-3.8,2.67-3.8S17.08,14.26,17.08,16.35Z"/><path class="cls-2" d="M12.29,26.12a1.12,1.12,0,0,0-1.06,1.43c1.31,4.76,7,8.35,13.76,8.35s12.52-3.63,13.79-8.44a1.1,1.1,0,0,0-1.08-1.34Z"/><path class="cls-3" d="M25,28a25,25,0,0,0,9.81-1.87H15.18A25,25,0,0,0,25,28Z"/><path class="cls-4" d="M25.23,33.31a7.18,7.18,0,0,0-5,2A18.31,18.31,0,0,0,25,35.9a18.48,18.48,0,0,0,5.13-.72A7.17,7.17,0,0,0,25.23,33.31Z"/></svg>