<svg id="Capa_1" data-name="Capa 1" xmlns="http://www.w3.org/2000/svg" viewBox="0 0 50 50"><defs><style>.cls-1{fill:#ffce00;}.cls-2{fill:#261f11;}.cls-3{fill:#483d23;}.cls-4{fill:#562912;}</style></defs><title>Mesa de trabajo 10</title><circle class="cls-1" cx="25" cy="25" r="25" transform="translate(-0.69 0.7) rotate(-1.59)"/><path class="cls-2" d="M29.37,14.66A16.09,16.09,0,0,1,25,15.3a16.14,16.14,0,0,1-4.37-.64A39.21,39.21,0,0,0,9,13.1a46.56,46.56,0,0,0-7.4.8A1.42,1.42,0,0,0,.46,15.62l.19.81a1.4,1.4,0,0,0,.94,1,.89.89,0,0,1,.57.52c.32.86,2.05,6,3,7.85.77,1.55,2.85,2.87,7.68,2.89,6.88,0,9.26-4.52,10.35-7.46.12-.31.29-.9.45-1.47A3.72,3.72,0,0,1,24.57,18,1,1,0,0,1,25,17.9a.93.93,0,0,1,.44.12,3.73,3.73,0,0,1,.93,1.73c.16.57.33,1.16.45,1.47,1.09,2.94,3.47,7.49,10.35,7.46,4.83,0,6.91-1.34,7.68-2.89.94-1.88,2.67-7,3-7.85a.89.89,0,0,1,.57-.52,1.4,1.4,0,0,0,.94-1l.19-.81a1.42,1.42,0,0,0-1.11-1.72,46.56,46.56,0,0,0-7.4-.8A39.16,39.16,0,0,0,29.37,14.66Z"/><path class="cls-3" d="M28.23,19.22c.14,3.33,3.39,6.54,6.42,7.27,4.47,1.08,7.82.12,9.73-4,.57-1.24,1.8-3.94,1.72-5.38-.14-2.5-3.31-2.06-5.34-2.11C40.55,15,28,14.67,28.23,19.22Z"/><path class="cls-3" d="M21.9,19.22c-.15,3.33-3.39,6.54-6.43,7.27-4.46,1.08-7.82.12-9.72-4C5.17,21.27,4,18.57,4,17.13c.13-2.5,3.31-2.06,5.33-2.11C9.58,15,22.1,14.67,21.9,19.22Z"/><path class="cls-4" d="M30.33,37.79a13.94,13.94,0,0,1-2-.15,1.22,1.22,0,0,1,.36-2.42c3.87.58,7.31-.88,8.76-3.73A1.21,1.21,0,0,1,39.07,31a1.23,1.23,0,0,1,.54,1.64C37.94,35.87,34.42,37.79,30.33,37.79Z"/></svg>